<svg xmlns="http://www.w3.org/2000/svg" width="751.926" height="213.178" viewBox="0 0 20412 5787" shape-rendering="geometricPrecision" text-rendering="geometricPrecision" image-rendering="optimizeQuality" fill-rule="evenodd" clip-rule="evenodd"><defs><style>.fil0{fill:#fefefe;fill-rule:nonzero}</style></defs><g id="Слой_x0020_1"><path class="fil0" d="M12918 3342c0 34-11 62-33 85-23 22-51 34-85 34s-62-12-85-34c-22-23-34-51-34-85 0-31 12-59 34-82 23-22 51-33 85-33s62 11 85 33c22 23 33 51 33 82zm-1952-134c23-48 50-101 81-159s64-116 98-176c35-59 72-117 111-176 39-58 80-115 122-167 42-51 85-88 128-111s84-34 122-34c76 0 132 28 169 83 37 56 55 125 55 207 0 19-1 42-3 69-3 27-4 56-6 87-3 30-4 61-6 93-3 31-3 61-3 89 0 35 1 69 5 100 4 33 10 61 21 85 10 24 25 44 44 57 19 14 44 21 74 21 57 0 111-22 163-64 53-44 102-95 147-155 45-59 83-119 116-181 33-61 58-111 73-149 8-16 18-28 33-37 13-9 28-14 45-14 24 0 45 9 60 28 15 18 23 37 23 58 0 10-2 21-6 30-6 12-18 36-35 73-18 37-42 79-70 127-29 47-62 97-100 151s-80 102-126 146c-47 44-96 81-150 110-53 29-110 44-168 44-66 0-119-13-160-39-41-25-73-59-97-100-23-42-39-88-47-138s-12-101-12-152c0-22 1-47 3-75 2-27 5-57 8-87 4-31 6-62 9-93 2-30 3-60 3-87 0-47-8-78-22-95-15-17-28-25-40-25-23 0-50 13-80 40s-62 63-95 107c-32 44-66 93-100 148-35 55-67 109-97 164-30 54-58 105-83 154-26 49-46 89-61 122-29 61-58 102-88 124-29 21-59 32-90 32-42 0-76-13-102-39-25-25-38-62-38-108 0-11 2-31 5-61s6-65 11-107c4-42 9-87 13-135 5-48 9-96 14-144 4-48 8-92 11-133s5-75 5-103c0-37-2-72-5-106-3-33-9-54-17-61-14 4-37 32-71 82-33 51-77 140-129 267-4 8-8 15-13 21-16 30-35 67-59 108-26 48-56 98-90 149-33 52-70 102-111 153-39 50-82 96-128 136s-93 72-142 97c-51 25-101 38-152 38-66 0-124-15-174-42-49-28-91-65-126-112-34-47-60-102-76-166-18-64-26-132-26-205 0-211 14-421 40-630 2-21 12-39 27-54 16-16 35-24 60-24 22 0 40 9 55 26 15 16 22 36 22 58 0 9-2 35-6 79-3 44-7 96-13 157-5 61-9 125-13 193-4 69-5 131-5 189 0 77 7 140 23 187 15 48 35 85 59 111s50 44 77 53 53 13 78 13c41 0 84-15 127-44 44-29 89-70 136-123 46-53 92-116 139-190s93-157 138-247l1-1c65-155 126-269 184-341 58-75 115-111 172-111 34 0 63 8 87 25 23 17 42 39 56 67s25 58 31 91c7 34 10 69 10 104 0 26-2 67-6 122-4 56-9 116-15 179s-12 126-17 189c-6 63-11 116-15 158zM9767 1682c0-21-7-39-23-54-15-15-33-23-54-23-20 0-38 8-52 23-15 15-22 33-22 54s7 38 22 52c14 15 32 23 52 23 21 0 39-8 54-23 16-14 23-31 23-52zm123-1c0 55-20 103-59 142-38 39-85 58-142 58-55 0-102-19-141-58s-58-87-58-142c0-28 5-54 15-78s25-46 43-64c18-19 39-33 63-43 25-10 51-15 78-15 29 0 54 5 78 15 25 10 46 24 64 43 19 18 33 40 44 64 9 24 15 50 15 78zm-727 1661c0 34-11 62-34 85-22 22-51 34-85 34-33 0-61-12-84-34-23-23-34-51-34-85 0-31 11-59 34-82 23-22 51-33 84-33 34 0 63 11 85 33 23 23 34 51 34 82zm-1841-229c-7 11-15 22-24 33-37 53-80 101-127 145s-98 80-152 109c-54 28-111 43-171 43-85 0-156-27-214-82-58-54-100-122-126-204-50 83-109 149-178 199-68 48-137 73-206 73-54 0-103-10-146-30-45-19-82-47-112-83-31-36-55-78-71-126-10-27-17-54-21-83-7 11-15 22-24 33-39 53-81 102-128 147s-97 82-151 111c-55 30-112 45-172 45-65 0-117-12-158-34-40-23-72-53-97-92-24-38-41-81-50-131s-13-102-13-156c0-72 4-138 11-199 8-60 11-108 11-141 0-36-3-64-9-84-7-18-15-32-24-40-10-8-19-13-28-14h-20c-35 0-72 19-111 58s-79 91-120 155c-41 65-83 138-126 220-44 83-87 166-132 251-24 48-45 86-62 117s-33 55-49 72c-15 18-30 31-45 38s-30 11-48 11c-38 0-67-13-87-40-20-26-30-60-30-102 0-23 1-52 3-89 1-36 3-76 4-121 2-43 4-89 7-135 3-48 5-93 7-135 1-44 3-82 4-116 2-34 2-59 2-76 0-39-6-66-19-83-14-17-29-25-47-25-15 0-33 6-54 17-19 12-42 34-69 68-20 26-46 65-78 116-31 50-65 106-100 168-35 60-70 123-104 188-35 64-64 122-90 173-30 62-61 104-92 127-31 22-61 34-90 34-43 0-74-13-94-39-21-25-31-60-31-102 0-4 1-30 4-79 2-48 4-107 7-176 3-70 7-144 11-223 3-80 6-153 9-222 2-37 0-71-4-101-5-31-10-49-17-55-12 3-36 30-70 82-34 51-78 140-131 267-7 16-18 29-33 37-14 9-30 14-45 14-26 0-45-9-60-26-15-16-22-36-22-58 0-10 2-21 7-33 66-156 129-272 189-345 60-75 118-111 175-111 35 0 63 7 86 23 23 15 41 35 54 59s23 52 29 83c6 30 9 60 9 90 0 129-3 249-10 357-7 109-14 218-22 328 22-44 51-99 85-165 35-65 71-131 108-197s74-129 110-188 66-104 91-135c42-51 86-87 132-110 45-22 87-33 125-33 39 0 71 8 98 24 27 17 49 38 67 65s31 60 39 96c9 36 14 74 14 115 0 24-1 55-3 93s-5 80-7 124-4 89-7 136c-2 48-4 92-6 133 22-44 48-93 75-146 28-54 57-107 85-160 29-53 56-103 83-148 26-47 50-84 72-114 63-87 122-144 177-174 55-29 104-44 147-44 49 0 90 9 123 27 32 19 57 42 75 71 18 27 32 60 39 94 7 35 11 68 11 101 0 49-4 101-11 155-8 54-12 118-12 192 0 31 2 61 5 91 3 31 9 58 19 81 9 24 24 42 45 57 20 15 48 22 83 22 38 0 76-10 112-30 36-19 72-46 105-78 34-32 66-68 96-109 30-42 57-82 82-123 26-42 47-81 66-118 20-38 35-69 47-95 7-17 17-29 30-38 5-3 10-6 16-8 34-65 75-120 122-166 60-58 126-102 199-131s143-44 210-44c45 0 87 6 125 18 38 13 71 27 98 42s48 28 63 41c14 12 22 19 24 21 16 19 24 39 24 60 0 22-8 41-24 58-17 17-35 25-57 25-24 0-44-8-60-24-2-3-9-9-20-16-10-9-24-17-42-26-17-9-38-16-62-23s-52-10-82-10c-45 0-94 11-145 31-52 20-98 52-141 95-42 44-78 98-107 162-28 65-42 143-42 232 0 28 3 55 9 84 5 28 15 55 30 78s34 42 60 57c24 14 55 22 91 22 26 0 57-9 92-27 33-18 66-45 98-81 31-36 60-83 85-138 26-56 44-122 54-198 3-21 12-38 29-52 16-14 35-21 57-21 20 0 38 8 53 25 16 15 24 34 26 54 1 28 4 67 9 118 4 50 14 101 29 150 16 50 39 93 70 130 30 37 72 55 127 55 35 0 70-9 104-29 35-19 69-44 101-76 33-31 64-66 94-107 30-40 58-81 83-122s47-80 66-119c19-38 35-71 49-99 6-15 18-28 31-37 5-3 9-5 14-7 35-67 76-123 125-171 60-58 126-102 198-131s142-44 209-44c45 0 86 6 125 18 37 11 70 24 97 39s47 29 62 42c15 14 23 21 24 23 17 17 24 37 24 60 0 22-7 41-24 58-15 17-35 25-57 25-20 0-39-8-58-24-6-4-14-11-23-19-10-8-22-16-38-25s-34-16-55-22-47-9-76-9c-44 0-92 10-145 29-52 21-102 51-147 94-46 42-84 97-115 163-30 67-45 147-45 240 0 70 15 127 45 170 31 43 79 65 144 65 30 0 63-9 97-27 35-18 68-45 100-81s61-83 85-138c24-56 41-122 51-198 3-21 13-38 29-52s36-21 58-21c25 0 45 9 59 27 14 17 21 37 21 59 0 2-1 23-2 67-2 43-3 100-5 172-1 72-3 156-5 249-2 95-5 195-6 300 275-359 466-657 574-894 6-16 17-28 29-36 13-9 27-12 43-12 25 0 45 8 61 25 17 17 25 36 25 58 0 10-2 21-7 31-64 147-156 310-274 490-120 180-270 384-451 611 0 92 1 184 2 276 2 93 2 194 2 304s-2 218-7 326-14 210-28 308c-13 97-31 187-53 271-23 82-53 154-88 215-36 61-79 108-130 142-51 35-110 52-179 52-98 0-173-37-226-112s-79-181-79-318c0-74 7-153 21-239 13-85 34-174 60-265 26-90 58-183 96-276 37-93 79-183 124-271s95-172 148-253c53-80 110-154 170-220 2-102 3-204 4-305s2-194 5-279c-43 56-96 100-156 132-61 32-121 48-181 48-51 0-98-10-140-30-41-19-76-47-105-83-30-36-52-78-69-126-8-25-14-51-18-77zm660 989c-68 94-130 198-186 310-54 112-102 225-141 339s-70 225-91 333-32 204-32 288c0 54 5 98 15 130 9 32 21 57 35 74 13 18 28 30 46 36 16 6 32 9 46 9 46 0 85-18 119-55 33-37 61-86 84-146 24-61 43-131 57-210 15-79 26-160 33-245 8-84 12-168 15-251s5-160 5-230v-189c0-63-2-128-5-193zm8138-2420c0-21-7-39-23-54-15-15-33-23-54-23-20 0-38 8-53 23s-21 33-21 54 6 38 21 52c15 15 33 23 53 23 21 0 39-8 54-23 16-14 23-31 23-52zm122-1c0 55-19 103-58 142-38 39-86 58-142 58-55 0-103-19-142-58-38-39-57-87-57-142 0-28 5-54 15-78s24-46 42-64c19-19 40-33 64-43 25-10 50-15 78-15 29 0 54 5 78 15 25 10 46 24 64 43 19 18 33 40 43 64s15 50 15 78z"/><path class="fil0" d="M14995 2734v2-2zm3746 474c23-48 50-101 81-159 30-58 63-116 98-176 35-59 72-117 111-176 39-58 79-115 121-167 43-51 86-88 129-111s84-34 122-34c76 0 132 28 169 83 36 56 54 125 54 207 0 19 0 42-3 69-2 27-3 56-6 87-2 30-3 61-6 93-2 31-3 61-3 89 0 35 2 69 6 100 3 33 10 61 21 85 10 24 24 44 44 57 19 14 43 21 74 21 56 0 110-22 163-64 52-44 101-95 146-155 45-59 83-119 116-181 33-61 58-111 74-149 7-16 18-28 32-37s29-14 45-14c25 0 45 9 60 28 16 18 23 37 23 58 0 10-2 21-6 30-6 12-18 36-35 73-18 37-41 79-70 127-28 47-61 97-99 151-39 54-81 102-126 146-47 44-96 81-150 110s-110 44-168 44c-66 0-120-13-160-39-41-25-74-59-97-100-23-42-39-88-47-138s-12-101-12-152c0-22 1-47 3-75 2-27 4-57 8-87 4-31 6-62 8-93 3-30 3-60 3-87 0-47-7-78-21-95-15-17-28-25-40-25-23 0-50 13-80 40s-62 63-95 107c-32 44-66 93-100 148-35 55-67 109-97 164-30 54-58 105-83 154-26 49-46 89-61 122-29 61-59 102-88 124-29 21-59 32-90 32-42 0-76-13-102-39-25-25-38-62-38-108 0-11 1-31 4-61s7-65 12-107c4-42 9-87 13-135 5-48 9-96 14-144 4-48 8-92 11-133s4-75 4-103c0-37-1-72-4-106-3-33-9-54-17-61-14 4-37 32-71 82-34 51-77 140-130 267-2 5-4 9-7 13-3 9-7 17-11 24-25 44-54 86-87 127-33 40-72 76-117 106-45 31-94 56-150 74s-118 26-187 25c-37 0-69-3-97-9-22 44-48 84-79 122-31 37-66 70-107 98-40 28-85 50-136 66-49 16-103 24-162 24-69 0-132-12-189-36-58-24-108-58-150-101-43-43-76-95-99-155-9-24-17-49-22-74-29 43-60 84-94 127-40 50-82 96-128 136s-93 72-143 97-100 38-151 38c-66 0-125-15-174-42-50-28-92-65-126-112-35-47-60-102-77-166-9-36-16-74-21-113-15 26-32 52-51 79-36 54-76 102-120 146-45 44-93 81-144 110-52 29-106 44-163 44-101 0-193-33-273-99-81-66-150-159-206-277-15-31-29-63-41-96-5 8-9 16-14 24-29 48-62 98-101 151-37 53-80 101-127 145s-98 80-152 109c-54 28-111 43-171 43-85 0-156-27-214-82-58-54-100-122-126-204-50 83-109 149-178 199-68 48-137 73-206 73-54 0-103-10-146-30-45-19-82-47-112-83-31-36-55-78-71-126-18-49-26-101-26-158 0-114 20-215 58-302 39-88 88-160 148-219 60-58 126-102 199-131s143-44 210-44c45 0 87 6 125 18 38 13 71 27 98 42s48 28 63 41c14 12 22 19 24 21 16 19 24 39 24 60 0 22-8 41-24 58-17 17-35 25-57 25-24 0-44-8-60-24-2-3-9-9-20-16-10-9-24-17-42-26-17-9-38-16-62-23s-52-10-82-10c-45 0-94 11-145 31-52 20-98 52-141 95-42 44-78 98-107 162-28 65-42 143-42 232 0 28 3 55 9 84 5 28 15 55 30 78s34 42 60 57c24 14 55 22 91 22 26 0 57-9 92-27 33-18 66-45 98-81 31-36 60-83 85-138 26-56 44-122 54-198 3-21 12-38 29-52 16-14 35-21 57-21 20 0 38 8 53 25 16 15 24 34 26 54 1 28 4 67 9 118 4 50 14 101 29 150 16 50 39 93 70 130 30 37 72 55 127 55 35 0 70-9 104-29 35-19 69-44 101-76 33-31 64-66 94-107 30-40 58-81 83-122s47-80 66-119c16-31 29-59 41-84-7-31-13-64-19-97-30-163-45-341-45-534 0-49 1-106 3-171 1-65 4-134 9-206 4-73 10-148 19-225s20-152 35-225h-789c-23 0-42-7-59-21-16-14-24-33-24-56s8-42 24-55c17-15 36-21 59-21h827c14-54 31-102 51-146s43-82 68-115c26-33 55-58 86-76 31-19 66-28 105-28 36 0 68 9 95 28 27 18 50 43 69 76s34 71 45 115 19 92 25 146h1123c24 0 44 6 59 21 17 13 25 32 25 55s-8 42-25 56c-15 14-35 21-59 21h-1114v24c0 90-6 185-18 286-13 101-31 202-54 302-22 101-48 199-76 294-29 96-58 183-89 264-30 81-59 151-88 210-29 60-56 104-80 133 20 68 42 131 69 188 26 59 56 109 89 153 33 42 68 77 106 102 39 24 79 37 123 37 52 0 103-22 153-64 51-44 98-95 141-155 43-59 81-119 114-180s57-109 72-146c4-10 9-18 15-26 6-121 17-242 33-363 2-21 12-39 27-54 15-16 35-24 60-24 22 0 40 9 55 26 14 16 22 36 22 58 0 9-2 35-6 79-3 44-8 96-13 157s-10 125-13 193c-4 69-6 131-6 189 0 77 8 140 24 187 15 48 35 85 59 111s49 44 76 53c28 9 54 13 78 13 42 0 84-15 128-44s89-70 136-123c45-53 92-116 139-190s93-157 138-247c7-14 17-25 29-33 29-55 63-101 99-139 45-47 89-80 133-104 44-22 77-33 99-33 25 0 44 6 56 19 12 14 18 31 18 53 0 24-7 43-23 56-15 12-34 24-58 36-23 11-48 28-75 49-26 21-51 48-73 80-23 32-41 70-56 114-15 43-22 92-22 146 0 49 7 94 22 135 14 41 36 77 63 107s60 54 98 70c37 17 80 26 127 26 83 0 152-20 207-59 54-38 96-88 126-148-87-45-157-109-213-192-56-84-84-177-84-282 0-83 21-151 61-204 41-52 94-78 161-78 39 0 77 9 112 28s67 49 95 89c27 41 48 93 65 158 16 64 24 140 24 229 0 46-6 95-18 146 9 1 18 2 27 2h28c50 0 95-6 135-17 39-12 75-30 107-53 32-24 61-54 87-90 22-33 44-69 65-110 65-155 126-270 185-343 57-75 114-111 172-111 34 0 62 8 86 25s43 39 57 67 24 58 31 91c7 34 10 69 10 104 0 26-2 67-6 122-4 56-9 116-15 179s-12 126-17 189c-6 63-11 116-15 158zm-3780-633c43-97 83-201 118-314 36-111 67-225 92-339 26-114 45-226 59-336s21-211 21-303h-257c-20 90-36 203-48 337-13 134-19 297-19 489 0 107 3 197 8 269 6 72 14 138 26 197zm202-1643c-13 0-32 14-58 42-24 30-49 81-74 156h211c-8-62-18-111-32-145-14-35-30-53-47-53zm2308 1679c0 28 4 58 10 88 8 31 19 61 34 91 16 30 35 59 56 86 23 27 50 50 80 69 3-30 4-60 4-90 0-39-3-80-8-120-6-42-14-79-25-114-11-34-24-62-39-84-16-21-35-31-57-31-8 0-19 7-33 19-15 14-22 42-22 86zM2783 0c35 0 66 15 92 46s40 69 40 115c0 61-25 129-74 205-49 75-120 154-212 236-16 82-30 176-42 280-11 105-17 224-17 357 0 206-7 405-20 600s-38 378-75 549c-37 172-88 329-155 473s-154 267-262 370c-108 104-238 184-393 242-154 57-336 87-547 87-177 0-333-21-471-62s-255-97-351-170c-96-72-169-157-220-254-50-98-76-204-76-318s24-219 73-317c48-97 113-182 195-254 82-73 178-129 286-170 109-42 225-62 348-62 19 0 39 0 58 1 20 1 38 4 54 9s29 13 41 26c11 12 16 29 16 50 0 24-8 43-25 58s-36 23-58 23h-86c-99 0-193 15-282 48-89 32-167 77-234 134-68 57-121 124-160 201-40 78-59 162-59 253 0 80 15 151 44 214s68 118 118 166c50 47 108 88 173 121 65 34 133 61 205 81 72 21 144 36 219 45 74 10 144 15 212 15 186 0 346-27 481-79 135-53 249-127 342-222s168-209 225-342c57-132 102-278 134-439 32-160 53-331 64-514 12-182 18-371 19-565 2-94 5-186 11-276s15-172 24-245c-58 31-122 61-192 90-70 30-141 60-212 91-70 32-140 65-207 101s-127 75-178 119c-53 43-94 91-126 145-31 53-47 113-47 179 0 60 11 112 31 157s46 82 77 113 64 56 101 76c36 19 71 35 102 46 32 11 59 19 81 24 23 5 36 8 39 8 24 7 42 17 51 30 8 12 12 27 12 45 0 24-7 45-21 60-15 15-33 23-55 23-3 0-10-1-19-2-10 0-16-1-19-3-48-10-104-28-167-54-63-25-122-61-179-107-56-46-104-104-143-175-38-70-57-156-57-257 0-89 21-168 66-237 43-69 101-130 172-184s150-102 237-145 173-83 260-120 168-74 243-109c77-34 139-73 187-114 41-177 89-308 143-391S2727 0 2783 0z"/></g></svg>