<svg xmlns="http://www.w3.org/2000/svg" width="160.637" height="146.216" viewBox="0 0 1267 1153" shape-rendering="geometricPrecision" text-rendering="geometricPrecision" image-rendering="optimizeQuality" fill-rule="evenodd" clip-rule="evenodd"><path d="M740 228c-11 9-23 29-31 41-30 47-50 98-61 155-45-5-33-8-45-48-4-12-12-29-14-38l-5 77c-13-22-15-67-74-127 2 27 39 121 30 137-14-5-58-95-87-122 7 52 38 110 44 136-30-20-98-127-109-137 5 39 39 106 62 139l29 38c-8 15-13 26-15 45-25-3-50-9-75-7 19 13 44 21 64 36-67-3-86-4-147 14 21 12 127 21 162 28l-169 29c26 18 105 14 143 16 22 1 19-5 41-11l27 36c-24 23-54 37-73 65l63-23c-8 15-65 56-84 120 20-11 106-89 130-101-12 21-33 46-48 69-10 16-38 59-44 76 32-13 100-90 106-95-19 57-64 117-83 159 30-17 73-71 93-102 13-19 25-39 35-62 26-58 12-55 40-59 0 21-5 45-5 64 1 21 12 44 13 56l12-76c11 25 25 107 61 135l-24-164c13 26 25 52 37 76 11 22 34 57 40 76 7-10 3-21 1-35-8-38-23-80-27-103 18 15 81 120 96 153-1-57-41-143-72-189-22-31-22-21-50-41 4-5 14-15 23-23 40 0 83 19 135 14-12-10-49-23-65-33 43 0 119 1 146-24-33-3-143-9-163-20 44-6 135-22 170-37-57-9-98-2-151-6 10-2 136-51 179-54-40-8-92-4-131 3-27 5-30 12-47 25-9 7-32 23-43 27l-16-40c5-7 10-10 16-17 5-6 11-13 17-20 9-13 24-30 29-45-19 9-36 28-60 36 10-21 25-37 36-61 9-21 19-46 22-72-17 14-39 46-54 64-16 20-36 47-53 64 15-49 50-109 60-163-13 8-38 44-46 57-14 19-25 40-38 61 0-22 14-64 20-86 7-23 24-64 27-86zM380 447c-6-12-2-4-8-12-22-27-29-31-49-66-16-27-30-60-39-93-14-56-19-182 10-229 53 4 163 47 202 71 105 63 120 122 135 137 7-11 13-34 18-45 17-39 51-87 79-114 29-27 105-86 160-96 22 28 56 143 62 188 5 39 6 81-1 120-7 42-20 61-31 95 75-14 127-20 200 1 80 23 95 44 149 74-3 15-24 44-34 56-63 81-129 155-240 182-61 15-90 7-149 0 4 8 10 12 17 20 41 49 69 103 84 169 10 43 10 91 4 135-9 68-20 73-30 113-64-12-149-58-194-89-92-65-95-111-124-154-9 11-25 46-55 81-56 65-178 137-261 132-12-66-24-116-20-188 2-30 6-61 14-89 9-31 19-48 28-73-131 6-239-33-307-101 9-22 50-69 66-86 80-91 177-147 314-139zm243 254c76 0 137-61 137-137 0-75-61-136-137-136-75 0-136 61-136 136 0 76 61 137 136 137zm56-82c6 3 16 6 7 21-4 8-15 11-23 6-16-10-4-37 16-27zm-88 21c-20 8-40-4-27-23 9-13 34-7 27 23zm-79-129c29-5 32 22 15 28-21 8-23-14-15-28zm93 65c19 18-7 32-19 22-12-11 2-39 19-22zm56-9c-8-13-7-13-2-27 36-6 36 33 2 27zm67 46h-22l-2-22c23-15 38 1 24 22z" fill="#fefefe" id="Слой_x0020_1"/></svg>